<?xml version="1.0" encoding="UTF-8"?>
<svg id="Layer_2" data-name="Layer 2" xmlns="http://www.w3.org/2000/svg" xmlns:xlink="http://www.w3.org/1999/xlink" viewBox="0 0 589.05 108.19">
  <defs>
    <style>
      .cls-1, .cls-2, .cls-3, .cls-4 {
        stroke-width: 0px;
      }

      .cls-1, .cls-3 {
        fill-rule: evenodd;
      }

      .cls-1, .cls-4 {
        fill: #092f5c;
      }

      .cls-2 {
        fill: #ff6926;
      }

      .cls-3 {
        fill: url(#linear-gradient);
      }
    </style>
    <linearGradient id="linear-gradient" x1="54.62" y1="108.19" x2="54.62" y2="0" gradientUnits="userSpaceOnUse">
      <stop offset="0" stop-color="#ff6926"/>
      <stop offset=".26" stop-color="#ff6c24"/>
      <stop offset=".49" stop-color="#ff771d"/>
      <stop offset=".71" stop-color="#ff8913"/>
      <stop offset=".93" stop-color="#ffa305"/>
      <stop offset="1" stop-color="#ffae00"/>
    </linearGradient>
  </defs>
  <g id="Layer_1-2" data-name="Layer 1">
    <path class="cls-3" d="M36.43,8.91c0,3.3,5.44,7.31,5.73,10.79-2.47.21-7.57,3.49-9.35,4.81-8.27,6.13-14.92,16.55-14.92,28.23,0,5.13.63,7.33.67,9.44-2.86,1.51-5.22,3.87-8.09,5.39-.6-2.57-2.47-4.97-3.27-7.52-2.16-6.91-2.38-14.84-.4-21.77,3.6-12.62,3.45-3.6,10.61-8.61,3.73-2.6,3.85-5.43,3.85-9.63,0-.96-.31-.77-.81-1.89-.82-1.85-2.18-3.18-3.92-4.17-5.97-3.42-14.47.71-13.47,10.09.57,5.29,3.29.75.1,7.54-.69,1.47-.82,2.43-1.34,4.06-3.44,10.92-1.89,24.77,3.65,33.87,2,3.28,3.08,6.26,7.02,3.44l7.75-5.4c.37.78.62,1.57,1,2.37,6.32,12.8,18.06,21.57,33.72,21.57,2.9,0,5.07-.67,7.75-.67.63,2.34,3.42,3.73,4.05,6.07-6.9,3.65-12.44,5.73-20.9,5.73-4.84,0-12.38-2.06-15.51-3.71.09-1.05.34-1.2.34-2.36,0-9.76-12.61-12.78-17.61-4.13-2.26,3.92-.31,10.18,3.55,12.12,2.48,1.25,6.11,1.93,8.9.33,3.72-2.13,2.11-.45,7.86,1.12,1.47.4,3.03,1.05,4.47,1.26,1.21.17,1.76.14,2.68.35,7.34,1.73,19.21-.78,25.11-3.74,7.55-3.8,10.24-5.14,5.23-10.76-.81-.91-2.45-3.12-2.77-4.31,4.98-.41,13.74-8.55,16.57-12.42,3.85-5.25,7.36-12.97,7.36-21.97,0-2.76-.67-4.99-.67-7.42,2.1-1.11,5.47-4.2,7.42-4.72,5.28,9.97,6.89,21.68,2.41,32.75-.46,1.13-1.14,2.54-1.4,3.66-3.32-.28-5.3-.86-8.15,1.29-7.2,5.43-3.88,16.92,5.45,16.92,6.33,0,10.57-6.86,8.56-12.61-.41-1.18-1.05-1.61-1.23-2.42-.07-.34,3.49-8.74,3.89-10.84,1.99-10.51.83-21.54-4.37-30.88-3.26-5.85-4.41-5.55-9.31-1.67l-4.96,3.13c-.67-2.87-3.32-6.96-4.92-9.25-5.8-8.34-16.63-15.03-28.12-15.03-2.52,0-6.68-.33-8.77.67-.78-2.93-4.03-5.14-4.72-8.09l3.48-1.58c1.2-.57,2.83-1.07,4-1.39,9.78-2.67,19.9-1.47,28.93,3.3-.87,3.72-.65,5.09,1.11,8,2.49,4.12,8,5.2,12.27,3.02,8.73-4.43,4.68-17.84-4.97-17.14-1.12.08-2.05.09-2.75.32-2.46.81-2.06,1.77-4.52.27-.98-.6-.81-.55-2.01-1.03-1.55-.62-2.84-1.12-4.4-1.67-8.73-3.06-19.92-2.54-28.55.72-2.26.85-9.35,3.75-9.35,6.16ZM84.64,13.29c0-4.34,7.42-5.83,7.42.34,0,4.51-7.42,4.52-7.42-.34ZM12.49,25.77c-5.8,0-4.8-7.42-.67-7.42,5.59,0,4.96,7.42.67,7.42ZM23.61,54.42c0-6.57,1.95-12.33,5.52-17.74,3.9-5.9,11.47-11.29,18.27-12.75,20.94-4.47,38.57,11.46,38.57,29.13v2.7c0,15.41-14.25,29.67-29.67,29.67-6.9,0-8.97-.34-14.94-2.93-3.18-1.38-6.37-4.05-8.75-6.42-5.74-5.73-9.02-13.44-9.02-21.66ZM93.06,87.46c0-1.07,1.46-3.71,4.05-3.71,4.51,0,5.08,7.62,0,7.61-2.45,0-4.05-2.17-4.05-3.9h0ZM21.59,100.27c-5.63,0-5.16-7.42,0-7.42,2.13,0,3.56,1.89,3.61,3.75.05,1.76-1.7,3.66-3.61,3.66Z"/>
    <path class="cls-1" d="M34.74,54.42c0,5.73,2.78,10.55,5.49,13.73.61.72,1.77,1.55,2.56,2.17,12.28,9.65,32.08.86,32.08-14.88,0-9.14-3.77-15.5-11.68-19.33-12.7-6.15-28.44,3.47-28.44,18.32ZM54.97,68.58c-7.77,0-14.16-6.85-14.16-12.48v-3.03c0-6.23,6.59-12.81,12.81-12.81,4.64,0,7.92.36,11.72,4.46,8.61,9.28,1.28,23.86-10.37,23.86Z"/>
    <g>
      <g>
        <rect class="cls-4" x="222.56" y="77.41" width="5.37" height="28.94"/>
        <polygon class="cls-4" points="230.99 81.96 240.58 81.96 240.58 106.35 245.96 106.35 245.96 81.96 255.55 81.96 255.55 77.41 230.99 77.41 230.99 81.96"/>
        <path class="cls-4" d="M286.22,92.07c-1.02-.59-2.14-1.07-3.35-1.45-1.21-.37-2.44-.7-3.68-.97-1.24-.28-2.36-.56-3.37-.87-1.01-.3-1.82-.72-2.44-1.26s-.93-1.25-.93-2.13c0-.72.21-1.37.64-1.96.43-.59,1.11-1.07,2.05-1.43.94-.36,2.14-.54,3.6-.54,1.27,0,2.59.19,3.97.56,1.38.37,2.71.94,4.01,1.72l1.7-4.18c-1.27-.83-2.76-1.46-4.47-1.9-1.71-.44-3.43-.66-5.17-.66-2.65,0-4.83.39-6.55,1.18-1.72.79-3,1.83-3.84,3.14-.84,1.31-1.26,2.75-1.26,4.32s.31,2.81.93,3.8c.62.99,1.44,1.78,2.46,2.38,1.02.59,2.14,1.08,3.37,1.47,1.23.39,2.45.71,3.68.97,1.23.26,2.34.55,3.35.87,1.01.32,1.83.74,2.46,1.28.63.54.95,1.25.95,2.13,0,.72-.22,1.36-.66,1.92-.44.57-1.13,1.01-2.07,1.34-.94.33-2.16.5-3.68.5-1.79,0-3.54-.3-5.25-.91-1.71-.61-3.14-1.36-4.3-2.27l-1.86,4.18c1.24,1.02,2.89,1.85,4.94,2.5,2.05.65,4.21.97,6.47.97,2.65,0,4.84-.39,6.57-1.18,1.74-.79,3.02-1.83,3.87-3.14.84-1.31,1.26-2.73,1.26-4.28s-.31-2.76-.93-3.74c-.62-.98-1.44-1.76-2.46-2.36Z"/>
        <path class="cls-4" d="M318.61,81.19c-1.39-1.34-3.04-2.37-4.94-3.1-1.9-.73-3.97-1.1-6.2-1.1s-4.34.37-6.24,1.12c-1.9.74-3.56,1.78-4.96,3.12s-2.49,2.91-3.27,4.71c-.77,1.81-1.16,3.78-1.16,5.93s.39,4.09,1.16,5.89c.77,1.81,1.86,3.38,3.27,4.73,1.41,1.35,3.07,2.4,4.98,3.14,1.92.74,3.99,1.12,6.22,1.12s4.3-.37,6.2-1.1c1.9-.73,3.55-1.77,4.94-3.12,1.39-1.35,2.47-2.93,3.25-4.73.77-1.81,1.16-3.78,1.16-5.93s-.39-4.13-1.16-5.95c-.77-1.82-1.85-3.4-3.25-4.73ZM316.83,95.97c-.51,1.24-1.22,2.32-2.13,3.22s-1.98,1.61-3.2,2.11c-1.23.5-2.57.74-4.03.74s-2.82-.25-4.07-.74c-1.25-.5-2.34-1.21-3.25-2.13-.91-.92-1.63-2.01-2.15-3.25-.52-1.24-.79-2.59-.79-4.05s.26-2.85.79-4.07c.52-1.23,1.24-2.3,2.15-3.22.91-.92,1.99-1.63,3.25-2.13,1.25-.5,2.61-.74,4.07-.74s2.8.25,4.03.74c1.23.5,2.3,1.2,3.22,2.11.92.91,1.63,1.98,2.13,3.22.5,1.24.74,2.6.74,4.09s-.26,2.85-.76,4.09Z"/>
        <polygon class="cls-4" points="333.06 77.41 327.68 77.41 327.68 106.35 348.19 106.35 348.19 101.8 333.06 101.8 333.06 77.41"/>
        <path class="cls-4" d="M371.22,93.53c0,2.98-.63,5.14-1.9,6.49-1.27,1.35-3.07,2.03-5.42,2.03s-4.15-.67-5.44-2.03c-1.28-1.35-1.92-3.51-1.92-6.49v-16.12h-5.37v16.29c0,4.24,1.12,7.48,3.37,9.71,2.25,2.23,5.34,3.35,9.28,3.35s7.08-1.12,9.32-3.35c2.25-2.23,3.37-5.47,3.37-9.71v-16.29h-5.29v16.12Z"/>
        <polygon class="cls-4" points="379.28 81.96 388.87 81.96 388.87 106.35 394.24 106.35 394.24 81.96 403.83 81.96 403.83 77.41 379.28 77.41 379.28 81.96"/>
        <rect class="cls-4" x="406.85" y="77.41" width="5.37" height="28.94"/>
        <path class="cls-4" d="M443.71,81.19c-1.39-1.34-3.04-2.37-4.94-3.1-1.9-.73-3.97-1.1-6.2-1.1s-4.34.37-6.24,1.12c-1.9.74-3.56,1.78-4.96,3.12s-2.49,2.91-3.27,4.71c-.77,1.81-1.16,3.78-1.16,5.93s.39,4.09,1.16,5.89c.77,1.81,1.86,3.38,3.27,4.73,1.41,1.35,3.07,2.4,4.98,3.14,1.92.74,3.99,1.12,6.22,1.12s4.3-.37,6.2-1.1c1.9-.73,3.55-1.77,4.94-3.12,1.39-1.35,2.47-2.93,3.25-4.73.77-1.81,1.16-3.78,1.16-5.93s-.39-4.13-1.16-5.95c-.77-1.82-1.85-3.4-3.25-4.73ZM441.93,95.97c-.51,1.24-1.22,2.32-2.13,3.22s-1.98,1.61-3.2,2.11c-1.23.5-2.57.74-4.03.74s-2.82-.25-4.07-.74c-1.25-.5-2.34-1.21-3.25-2.13-.91-.92-1.63-2.01-2.15-3.25-.52-1.24-.79-2.59-.79-4.05s.26-2.85.79-4.07c.52-1.23,1.24-2.3,2.15-3.22.91-.92,1.99-1.63,3.25-2.13,1.25-.5,2.61-.74,4.07-.74s2.8.25,4.03.74c1.23.5,2.3,1.2,3.22,2.11.92.91,1.63,1.98,2.13,3.22.5,1.24.74,2.6.74,4.09s-.26,2.85-.76,4.09Z"/>
        <polygon class="cls-4" points="473.16 97.04 457.2 77.41 452.78 77.41 452.78 106.35 458.11 106.35 458.11 86.73 474.03 106.35 478.45 106.35 478.45 77.41 473.16 77.41 473.16 97.04"/>
        <path class="cls-4" d="M504.97,94.42c-.62-.98-1.44-1.76-2.46-2.36-1.02-.59-2.14-1.07-3.35-1.45-1.21-.37-2.44-.7-3.68-.97-1.24-.28-2.36-.56-3.37-.87-1.01-.3-1.82-.72-2.44-1.26s-.93-1.25-.93-2.13c0-.72.21-1.37.64-1.96.43-.59,1.11-1.07,2.05-1.43.94-.36,2.14-.54,3.6-.54,1.27,0,2.59.19,3.97.56,1.38.37,2.71.94,4.01,1.72l1.7-4.18c-1.27-.83-2.76-1.46-4.47-1.9-1.71-.44-3.43-.66-5.17-.66-2.65,0-4.83.39-6.55,1.18-1.72.79-3,1.83-3.84,3.14-.84,1.31-1.26,2.75-1.26,4.32s.31,2.81.93,3.8c.62.99,1.44,1.78,2.46,2.38,1.02.59,2.14,1.08,3.37,1.47,1.23.39,2.45.71,3.68.97,1.23.26,2.34.55,3.35.87,1.01.32,1.83.74,2.46,1.28.63.54.95,1.25.95,2.13,0,.72-.22,1.36-.66,1.92-.44.57-1.13,1.01-2.07,1.34-.94.33-2.16.5-3.68.5-1.79,0-3.54-.3-5.25-.91-1.71-.61-3.14-1.36-4.3-2.27l-1.86,4.18c1.24,1.02,2.89,1.85,4.94,2.5,2.05.65,4.21.97,6.47.97,2.65,0,4.84-.39,6.57-1.18,1.74-.79,3.02-1.83,3.87-3.14.84-1.31,1.26-2.73,1.26-4.28s-.31-2.76-.93-3.74Z"/>
      </g>
      <g>
        <polygon class="cls-4" points="188.17 2.66 169.25 45.72 150.68 2.66 139.41 2.66 163.87 58.61 174.1 58.61 198.48 2.66 188.17 2.66"/>
        <g>
          <path class="cls-2" d="M301.18,16.24h0c1.87-2.13,3.77-3.8,5.79-5.09,1.63-1.04,3.47-1.85,5.61-2.49.43-.13.63-.16.89.02.59.41,1.39.28,1.95-.32.52-.56.63-1.24.3-1.88-.3-.57-.84-.93-1.44-.95-.58-.02-1.14.28-1.47.81-.09.15-.17.21-.34.25-1.38.36-2.72.83-3.98,1.42-2.39,1.12-4.63,2.68-6.84,4.79-3.66,3.48-6.05,7.57-7.13,12.16-.06.26-.12.31-.26.38-.65.31-1,1.11-.8,1.85.2.77.83,1.27,1.6,1.28.57,0,1.1-.3,1.41-.79.32-.5.35-1.12.08-1.64-.12-.23-.13-.29-.11-.39.9-3.72,2.45-6.8,4.74-9.4Z"/>
          <path class="cls-2" d="M348.35,19c-1.24-2.93-2.92-5.57-4.99-7.87h0s-.31-.36-.31-.36c-2.64-3.02-5.93-5.34-9.79-6.91-2.12-.86-4.4-1.49-6.78-1.87-1.93-.32-3.99-.48-6.11-.48-2,0-3.94.14-5.78.42-2.29.35-4.5.93-6.56,1.72l-.48.19c-5.92,2.58-10.66,6.78-14.07,12.5-2.52,4.23-3.73,8.99-3.7,14.54,0,.09.01.18.04.31l.09.55h4.11l.05.64c.05.66.1,1.31.17,1.97.05.52.13,1.07.25,1.68.11.57.25,1.13.4,1.69.16.58.32,1.1.5,1.6.17.48.36.96.56,1.43l.41,1.02c.15.38,1.58,3.78,5.55,7.23l.51.44c.05.04.1.08.17.14l.11.09s.1.08.13.1l.08.07s.1.08.15.13c2.62,2.21,5.6,3.86,8.86,4.88.42.13.57.2.71.45.22.4.58.67,1.02.77.46.1.93-.02,1.31-.31.79-.61.92-1.58.32-2.36-.5-.67-1.34-.83-2.08-.41-.2.12-.23.11-.28.1-2.49-.75-4.55-1.71-6.3-2.94-.66-.47-1.3-.98-1.92-1.49l-.34-.27c-.21-.17-.42-.34-.63-.52l-.13-.11c-.35-.32-1.58-1.49-2.77-2.86-.04-.05-.08-.11-.11-.14-1.44-1.72-2.57-3.68-3.37-5.81-.86-2.3-1.3-4.73-1.34-7.44,0-.25,0-.5,0-.78v-.92s-.69-.05-.69-.05c-.18-.01-.33-.03-.49-.03h-1.16c-.58,0-1.15,0-1.74,0-.04,0-.08,0-.11,0l.08-1.32c.2-2.89.86-5.68,1.97-8.29,1.47-3.47,3.69-6.53,6.77-9.36,4.46-4.09,9.69-6.41,15.54-6.91.06,1.3.05,4.97-.02,6.19-8.89,1.02-15.47,8.16-17.4,14.74-1.95,6.66-.44,14.11,3.82,18.96,3.4,4.5,8.56,6.51,8.62,6.53l.69.23v-.02l.26.08c1.08.32,2.19.66,3.36.82.23.03.45.07.7.11v6.21c-2.07-.19-3.89-.53-5.55-1.05-4.26-1.31-8.04-3.68-11.23-7.02-.08-.08-.16-.17-.19-.19-3.17-3.36-5-7.07-5.19-7.46l-.29-.77c-.28-.76-.55-1.47-.79-2.21-.32-.97-.65-2.12-.73-3.35-.01-.22.01-.28.08-.35.4-.44.53-1.01.35-1.56-.21-.65-.84-1.15-1.5-1.19-.47-.03-.98.18-1.33.56-.1.11-.18.22-.24.32-.04.06-.07.13-.1.2-.23.55-.1,1.28.29,1.69.07.08.15.16.29.24.11.09.15.17.17.47,0,.18.03.37.06.58.29,1.71.82,3.47,1.65,5.54,1.48,4.43,6.08,8.95,6.11,8.97l.14.16h.01c1.73,1.74,3.62,3.24,5.62,4.46.75.46,1.53.89,2.34,1.28.03.01.06.03.07.03.55.26,1.13.5,1.7.72,2.08.8,4.31,1.39,6.62,1.74,1.78.27,3.65.41,5.55.41,2.7,0,5.41-.28,8.04-.83,1.39-.32,2.76-.74,4.08-1.25,3.72-1.43,7-3.5,9.75-6.17.08-.08.16-.16.24-.24,2.6-2.58,4.65-5.62,6.11-9.05,1.51-3.53,2.28-7.46,2.28-11.66s-.77-8.14-2.28-11.7ZM309.34,14.45c.64-.38,1.31-.72,1.99-1.01,1.25-.55,2.59-.95,4.01-1.21,1.69-.4,3.52-.61,5.44-.61.48,0,.98.01,1.46.04,1.93.18,3.76.62,5.46,1.3,2.3.93,4.34,2.26,6.06,3.96,1.73,1.7,3.07,3.74,4,6.05.87,2.17,1.34,4.59,1.39,7.17,0,.18,0,.36,0,.55,0,2.79-.48,5.39-1.44,7.71-.96,2.32-2.31,4.36-4,6.06-.58.58-1.2,1.12-1.85,1.61-1.25.95-2.65,1.74-4.17,2.35-1.67.67-3.47,1.11-5.35,1.29-.52.04-1.08.05-1.65.05-1.1,0-2.17-.07-3.19-.2-.47-.04-.96-.1-1.44-.17l-.55-.07c-.14-.02-.28-.04-.42-.07-1.04-.18-2.04-.52-3.14-.9-.1-.04-.2-.08-.31-.13-.07-.03-.15-.07-.2-.09-4.23-2.09-7.48-5.87-7.6-6.02-.1-.14-.2-.28-.32-.44-.13-.18-.26-.36-.39-.54-2.66-3.94-3.65-8.4-2.96-13.27.48-3.32,1.83-6.32,4.03-8.93,1.62-1.93,3.3-3.4,5.14-4.5Z"/>
        </g>
        <g>
          <path class="cls-2" d="M465.37,45.06h0c-1.87,2.13-3.77,3.8-5.79,5.09-1.63,1.04-3.46,1.85-5.61,2.49-.43.13-.63.16-.89-.02-.59-.41-1.39-.28-1.95.32-.52.56-.63,1.24-.3,1.88.3.57.84.93,1.44.95.02,0,.04,0,.07,0,.56,0,1.09-.3,1.41-.81.09-.15.17-.21.34-.25,1.38-.36,2.72-.83,3.98-1.42,2.39-1.12,4.63-2.68,6.84-4.79,3.66-3.48,6.05-7.57,7.13-12.16.06-.26.12-.31.26-.38.65-.31,1-1.11.8-1.85-.2-.77-.83-1.27-1.6-1.28-.57,0-1.1.3-1.41.79-.31.5-.35,1.12-.08,1.64.12.23.13.29.11.39-.9,3.72-2.45,6.8-4.74,9.4Z"/>
          <path class="cls-2" d="M476.75,26.01c-.07-.08-.15-.16-.29-.24-.11-.09-.15-.17-.17-.47,0-.18-.03-.37-.06-.58-.29-1.71-.82-3.47-1.65-5.54-1.47-4.43-6.08-8.95-6.11-8.97l-.14-.16h-.01c-1.73-1.74-3.62-3.24-5.62-4.46-.75-.46-1.53-.89-2.34-1.28-.03-.02-.06-.03-.07-.03-.55-.26-1.13-.5-1.7-.72-2.08-.8-4.31-1.39-6.62-1.74-1.78-.27-3.64-.41-5.55-.41-2.7,0-5.41.28-8.04.83-1.39.32-2.76.74-4.08,1.25-3.72,1.43-7,3.5-9.75,6.17-.08.08-.16.16-.24.24-2.6,2.58-4.65,5.62-6.11,9.05-1.51,3.53-2.28,7.46-2.28,11.66s.77,8.14,2.28,11.7c1.24,2.93,2.92,5.57,4.99,7.87h0s.31.36.31.36c2.64,3.02,5.93,5.34,9.79,6.91,2.12.86,4.4,1.49,6.78,1.87,1.93.32,3.99.48,6.11.48,2,0,3.94-.14,5.78-.42,2.29-.35,4.5-.93,6.56-1.72l.48-.19c5.92-2.58,10.66-6.78,14.07-12.5,2.52-4.23,3.73-8.99,3.7-14.54,0-.09-.01-.18-.04-.31l-.09-.55h-4.11l-.05-.62c-.05-.66-.1-1.32-.17-1.98-.05-.52-.13-1.07-.25-1.68-.12-.57-.25-1.14-.4-1.69-.16-.58-.32-1.1-.5-1.6-.17-.48-.36-.96-.56-1.43l-.41-1.02c-.15-.38-1.59-3.78-5.55-7.23l-.51-.44c-.05-.04-.1-.08-.17-.14l-.09-.08c-.05-.04-.11-.09-.14-.11l-.08-.07s-.1-.08-.15-.13c-2.62-2.21-5.6-3.86-8.86-4.88-.42-.13-.57-.2-.71-.45-.22-.4-.58-.67-1.02-.77-.46-.1-.93.02-1.31.31-.79.61-.92,1.58-.32,2.36.5.67,1.34.83,2.08.41.2-.12.23-.11.28-.1,2.49.75,4.55,1.71,6.3,2.94.66.47,1.3.98,1.92,1.49l.34.27c.21.17.42.34.63.52l.13.11c.35.32,1.58,1.49,2.77,2.86.04.05.08.11.11.14,1.44,1.72,2.57,3.68,3.37,5.81.86,2.3,1.3,4.73,1.34,7.44,0,.25,0,.5,0,.78v.92s.69.05.69.05c.18.01.33.03.49.03h1.16c.58,0,1.15,0,1.74,0,.04,0,.08,0,.11,0l-.02.3c-.02.35-.04.68-.06,1.02-.2,2.89-.86,5.68-1.97,8.29-1.47,3.47-3.69,6.53-6.77,9.36-4.46,4.09-9.69,6.41-15.54,6.91-.06-1.3-.05-4.97.02-6.19,8.89-1.02,15.47-8.16,17.4-14.74,1.95-6.66.44-14.11-3.82-18.96-3.41-4.51-8.56-6.51-8.62-6.53l-.69-.23v.02l-.26-.08c-1.08-.33-2.19-.66-3.36-.82-.23-.03-.45-.07-.7-.11V3.62c2.07.19,3.89.53,5.55,1.05,4.26,1.31,8.04,3.68,11.23,7.02.08.08.16.17.19.19,3.16,3.36,5,7.07,5.19,7.46l.29.77c.28.76.55,1.47.79,2.21.32.97.65,2.12.73,3.35.01.22-.01.28-.08.35-.4.44-.53,1.01-.35,1.56.21.65.84,1.15,1.5,1.19.47.03.98-.18,1.33-.56.1-.11.18-.22.24-.32.04-.06.07-.13.1-.2.23-.55.1-1.28-.29-1.69ZM457.21,46.85c-.64.38-1.31.72-1.99,1.01-1.25.54-2.59.95-4.01,1.21-2.11.51-4.48.71-6.9.57-1.93-.18-3.76-.62-5.46-1.3-2.3-.93-4.34-2.26-6.06-3.96-1.73-1.7-3.07-3.74-4-6.05-.87-2.17-1.34-4.59-1.39-7.17,0-.18,0-.36,0-.55,0-2.79.48-5.39,1.44-7.71.96-2.32,2.31-4.36,4-6.06.58-.58,1.2-1.12,1.85-1.61,1.25-.95,2.65-1.74,4.17-2.35,1.67-.67,3.47-1.11,5.35-1.29.52-.04,1.08-.05,1.65-.05,1.1,0,2.17.07,3.19.2.47.04.96.1,1.44.17l.55.07c.14.02.28.04.42.07,1.04.18,2.04.52,3.14.9.1.04.2.08.31.13.07.03.15.07.2.09,4.23,2.09,7.48,5.87,7.6,6.02.1.14.2.27.31.43.14.19.27.37.39.55,2.66,3.94,3.65,8.4,2.95,13.27-.48,3.32-1.83,6.32-4.03,8.93-1.62,1.93-3.3,3.41-5.14,4.5Z"/>
        </g>
        <rect class="cls-4" x="207.88" y="2.66" width="10.38" height="55.9"/>
        <path class="cls-4" d="M395,39.87c3.54-1.6,6.27-3.86,8.19-6.79,1.92-2.93,2.87-6.44,2.87-10.54s-.96-7.72-2.87-10.7c-1.92-2.98-4.65-5.26-8.19-6.83-3.54-1.57-7.79-2.36-12.74-2.36h-23v55.9h10.38v-16.29h12.62c.74,0,1.47-.02,2.18-.06l11.39,16.35h11.18l-12.85-18.33c.28-.11.56-.23.83-.35ZM392.13,14.36c2.32,1.94,3.47,4.67,3.47,8.19s-1.16,6.26-3.47,8.23c-2.32,1.97-5.76,2.95-10.34,2.95h-12.14V11.44h12.14c4.58,0,8.03.97,10.34,2.91Z"/>
        <path class="cls-4" d="M524.78,33.8c0,5.75-1.23,9.93-3.67,12.54-2.45,2.61-5.94,3.91-10.46,3.91s-8.03-1.3-10.5-3.91c-2.48-2.61-3.71-6.79-3.71-12.54V2.66h-10.38v31.46c0,8.2,2.17,14.45,6.51,18.77,4.34,4.31,10.31,6.47,17.93,6.47s13.67-2.16,18.01-6.47c4.34-4.31,6.51-10.57,6.51-18.77V2.66h-10.22v31.15Z"/>
        <path class="cls-4" d="M587.25,35.52c-1.2-1.89-2.78-3.41-4.75-4.55-1.97-1.14-4.13-2.08-6.47-2.8-2.34-.72-4.71-1.34-7.11-1.88-2.4-.53-4.57-1.09-6.51-1.68-1.94-.59-3.51-1.4-4.71-2.44-1.2-1.04-1.8-2.41-1.8-4.11,0-1.38.41-2.65,1.24-3.79.82-1.14,2.14-2.06,3.95-2.76,1.81-.69,4.13-1.04,6.95-1.04,2.45,0,5,.36,7.67,1.08,2.66.72,5.24,1.82,7.75,3.31l3.27-8.07c-2.45-1.6-5.32-2.82-8.62-3.67-3.3-.85-6.63-1.28-9.98-1.28-5.11,0-9.33.76-12.66,2.28-3.33,1.52-5.8,3.54-7.43,6.07-1.62,2.53-2.44,5.31-2.44,8.35s.6,5.43,1.8,7.35c1.2,1.92,2.78,3.45,4.75,4.59,1.97,1.15,4.14,2.09,6.51,2.83,2.37.75,4.74,1.37,7.11,1.88,2.37.51,4.52,1.07,6.47,1.68,1.94.61,3.53,1.44,4.75,2.48,1.22,1.04,1.84,2.41,1.84,4.11,0,1.39-.43,2.62-1.28,3.71-.85,1.09-2.18,1.96-3.99,2.6-1.81.64-4.18.96-7.11.96-3.46,0-6.84-.59-10.14-1.76-3.3-1.17-6.07-2.64-8.31-4.39l-3.59,8.07c2.4,1.97,5.58,3.58,9.54,4.83,3.97,1.25,8.13,1.88,12.5,1.88,5.11,0,9.34-.76,12.7-2.28,3.35-1.52,5.84-3.54,7.47-6.07,1.62-2.53,2.44-5.28,2.44-8.27s-.6-5.34-1.8-7.23Z"/>
        <path class="cls-4" d="M269.73,47.3c-1.13.65-2.28,1.18-3.46,1.58-2.58.88-5.24,1.31-8,1.31-2.97,0-5.68-.48-8.12-1.43-2.44-.96-4.57-2.31-6.37-4.06-1.81-1.75-3.21-3.84-4.22-6.25-1.01-2.42-1.51-5.03-1.51-7.85s.5-5.5,1.51-7.89c1.01-2.39,2.42-4.46,4.22-6.21,1.8-1.75,3.94-3.11,6.41-4.06,2.47-.96,5.19-1.43,8.16-1.43s5.8.52,8.32,1.55c2.52,1.04,4.87,2.64,7.05,4.82l6.53-6.37c-2.6-2.97-5.8-5.23-9.6-6.77-3.8-1.54-8.03-2.31-12.7-2.31s-8.51.7-12.15,2.11c-3.64,1.41-6.82,3.41-9.56,6.01-2.74,2.6-4.85,5.63-6.33,9.08-1.49,3.45-2.23,7.28-2.23,11.47s.74,8.02,2.23,11.47c1.49,3.45,3.58,6.48,6.29,9.08,2.71,2.6,5.88,4.61,9.52,6.01,3.64,1.41,7.63,2.11,11.99,2.11,3.98,0,7.89-.6,11.71-1.79s7.17-2.96,10.04-5.3v-22.14h-9.72v17.25Z"/>
      </g>
      <path class="cls-4" d="M588.64,93.12h-69.18c-.23,0-.41-.57-.41-1.27s.18-1.27.41-1.27h69.18c.23,0,.41.57.41,1.27s-.18,1.27-.41,1.27Z"/>
      <path class="cls-4" d="M209,93.12h-69.18c-.23,0-.41-.57-.41-1.27s.18-1.27.41-1.27h69.18c.23,0,.41.57.41,1.27s-.18,1.27-.41,1.27Z"/>
    </g>
  </g>
</svg>